<svg xmlns="http://www.w3.org/2000/svg" viewBox="0 0 80 80"><path fill="#fff" d="M0 18.5h75.9"/><path d="M75.9 22.1h-74c-1 0-1.9-.8-1.9-1.8v-3.5c0-1 .8-1.8 1.9-1.8H76v7.1z"/><path d="M57.3 32.6l-1.3-2c-.7-1.1-.4-2.6.7-3.3l13.8-8.8-13.8-8.8c-1.1-.7-1.4-2.2-.7-3.3l1.3-2c.7-1.1 2.2-1.4 3.4-.7L76.9 14c1.3.8 2.2 2 2.5 3.5.4 2.1-.5 4.2-2.3 5.3L60.7 33.3c-1.2.7-2.7.4-3.4-.7zm-53.2 27h74.1c1 0 1.9-.8 1.9-1.8v-3.5c0-1-.8-1.8-1.9-1.8H4.1v7.1z"/><path d="M22.7 70.1l1.3-2c.7-1.1.4-2.6-.7-3.3L9.5 56l13.8-8.8c1.1-.7 1.5-2.2.7-3.3l-1.3-2c-.7-1.1-2.2-1.4-3.4-.7L3.2 51.6c-1.3.8-2.2 2-2.5 3.5-.4 2.1.5 4.2 2.3 5.3l16.3 10.4c1.2.7 2.7.4 3.4-.7z"/></svg>