<svg width="139" height="40" fill="none" xmlns="http://www.w3.org/2000/svg"><path d="M66.653 30.997h-4.272c-.02 0-.03-.004-.042-.017l-3.681-4.497-3.686 4.497c-.007.013-.02.017-.04.017h-3.42c-.022 0-.037-.01-.052-.033-.006-.013-.006-.038.007-.053l5.423-6.66-5.36-6.598a.07.07 0 01-.01-.063c.01-.011.031-.03.049-.03h4.274c.013 0 .029.007.04.027l3.23 4.002 3.287-4.004a.045.045 0 01.04-.025h3.484c.021 0 .042.019.05.03a.063.063 0 01-.008.064l-5.087 6.109 5.81 7.148c.016.015.022.04.01.053a.05.05 0 01-.046.033zm23.124-11.068c-1.892 0-3.184 1.148-3.553 3.143h6.436v-.128c0-1.598-1.176-3.015-2.883-3.015zm6.203 5.19a.056.056 0 01-.046.025h-9.779c.203 2.277 1.682 3.575 4.076 3.575 1.473 0 3.038-.504 5.25-1.68.04-.023.08.011.08.053l-.004 3.008c-.004.025-.015.04-.032.046-2.057.866-4.124 1.458-5.748 1.458-4.211 0-7.263-3.07-7.263-7.296 0-4.226 3.052-7.295 7.263-7.295 3.842 0 6.31 2.589 6.31 6.15 0 .575-.1 1.915-.107 1.957zm19.865-10.333c-1.2 0-2.175-.96-2.175-2.143 0-1.217.975-2.202 2.175-2.202 1.2 0 2.177.985 2.177 2.202 0 1.182-.977 2.143-2.177 2.143zm-1.756 16.211c-.035 0-.056-.02-.056-.055V17.616c0-.027.019-.048.042-.054h3.532a.051.051 0 01.044.054v13.326c0 .034-.023.055-.052.055h-3.51zM73.113 28.99c-.637 0-1.29-.09-2.04-.29l.008-8.55c.878-.279 1.641-.41 2.397-.41 2.45 0 4.093 1.806 4.093 4.488 0 2.893-1.75 4.762-4.458 4.762zm.96-11.975c-.997 0-2.003.182-3.06.545H67.5c-.029 0-.05.025-.05.056v21.853a8.105 8.105 0 003.626-1.423l-.002-6.647c.867.122 1.583.205 2.273.205 4.814 0 7.929-2.886 7.929-7.353 0-4.26-2.964-7.236-7.202-7.236zm33.584 10.869c-1.1.577-2.083.851-3.007.851-2.18 0-3.487-1.54-3.487-4.12 0-2.984 1.669-4.915 4.248-4.915.712 0 1.404.175 2.246.555v7.629zm0-17.379v6.976c-1.031-.295-1.94-.43-2.856-.43-4.189 0-7.351 3.156-7.351 7.35 0 4.175 2.789 7.202 6.627 7.202 1.33 0 2.574-.333 4.038-1.087l-.002 1.204a8.045 8.045 0 003.17-1.345V9.078a7.81 7.81 0 00-3.626 1.427zm22.231 17.352c-1.064.614-1.976.909-2.791.909-2.335 0-3.733-1.534-3.733-4.123 0-2.94 1.647-4.913 4.096-4.913.656 0 1.452.25 2.428.767v7.36zm3.63-10.458a.151.151 0 00-.152-.147l-2.854.004a.158.158 0 00-.155.153v.486h-.073c-1.318-.578-2.441-.844-3.549-.844-3.949 0-7.045 3.274-7.045 7.47 0 4.241 2.771 7.084 6.894 7.084 1.104 0 2.518-.076 3.842-1.6v1.715a8.229 8.229 0 003.088-1.35l.004-12.97zM41.74 27.662l8.865-.003a8.01 8.01 0 01-1.237 3.332h-9.224c-1.13 0-2.057-.874-2.168-1.98-.006-.017-.012-.032-.014-.048V11.478a.173.173 0 01.014-.044c.11-1.108 1.039-1.986 2.168-1.986.036 0 .07.004.1.004l10.342-.002a8.133 8.133 0 01-1.238 3.357H41.74v4.76h7.533c.03 0 .053.022.053.052v3.303a.053.053 0 01-.053.051H41.74v6.689zm-11.1 3.608c-.876 0-1.417-.686-1.417-1.524 0-.897.62-1.523 1.418-1.523.79 0 1.408.626 1.408 1.523 0 .9-.618 1.523-1.408 1.523zm0-3.22c-.897 0-1.664.676-1.664 1.696 0 .964.693 1.69 1.665 1.69.885 0 1.657-.672 1.657-1.69 0-1.02-.772-1.695-1.657-1.695z" fill="#fff"/><path d="M30.243 29.607v-.618h.417c.21 0 .46.032.46.289 0 .304-.23.329-.493.329h-.384zm1.184-.29c0-.403-.249-.575-.73-.575h-.76v2.003h.33v-.857h.307l.518.857h.373l-.562-.88c.304-.036.524-.183.524-.547zm105.006-9.539c-.876 0-1.422-.684-1.422-1.523 0-.897.622-1.522 1.422-1.522.788 0 1.408.625 1.408 1.522 0 .9-.62 1.523-1.408 1.523zm0-3.218c-.897 0-1.665.676-1.665 1.695 0 .965.691 1.69 1.665 1.69.884 0 1.653-.674 1.653-1.69 0-1.02-.769-1.695-1.653-1.695z" fill="#fff"/><path d="M136.033 18.115V17.5h.417c.211 0 .46.03.46.287 0 .306-.232.33-.49.33h-.387zm1.185-.289c0-.403-.249-.576-.731-.576h-.76v2.004h.327v-.856h.31l.519.856h.371l-.561-.88c.303-.035.525-.184.525-.548zM19.204 12.791l-.643-1.82-5.453-7.287.98-.243 9.402 8.128 5.533-1.583c.65-.168 1.389-.204 1.951-.2a15.91 15.91 0 00-9.122-8.325C13.546-1.5 4.414 2.84 1.46 11.15a15.893 15.893 0 00-.748 7.743l13.255-4.606 5.237-1.496zm12.353-1.569c-.486.315-1.2.729-1.908.956l-5.544 1.583-3.7 11.877-.961.312.78-9.07-.436-1.885-5.196 1.482L.858 19.712c1.087 5.287 4.83 9.89 10.284 11.834 8.307 2.96 17.436-1.382 20.39-9.685a15.908 15.908 0 00.025-10.638z" fill="#fff"/><path d="M19.788 14.996l.438 1.883-.783 9.07.96-.311 3.701-11.876 5.545-1.582c.708-.228 1.421-.645 1.907-.957a16.1 16.1 0 00-.581-1.437c-.563-.004-1.301.035-1.952.2L23.49 11.57l-9.404-8.13-.978.245 5.451 7.287.645 1.818-5.238 1.5L.712 18.892c.042.275.09.549.146.82l13.735-3.233 5.195-1.483z" fill="#222831"/></svg>