<svg width="36" height="30" fill="none" xmlns="http://www.w3.org/2000/svg"><g clip-path="url(#clip0)" fill="#1F4AA8"><path d="M34.428 24.877H1.353v1.193h33.075v-1.193zm-.502-18.79c-2.402-1.161-5.132-.545-6.998.177l-5.564 2.152-9.568-3.992-5.699.203L14 11.272l-5.036 1.984-5.24-1.654-3.507 1.357 3.17 3.265c-.335.331-.638.798-.363 1.288.36.64 1.424.962 3.168.962.358 0 .745-.013 1.16-.04 1.915-.126 3.991-.531 5.29-1.033l19.887-7.693c1.718-.664 2.574-1.362 2.616-2.133.022-.4-.172-.982-1.218-1.488zm-2.006 2.54L12.033 16.32c-1.106.427-2.923.786-4.627.913-1.742.13-2.673-.033-2.984-.172.064-.072.183-.186.404-.347l.516-.377-2.855-2.94 1.293-.501 5.245 1.656 7.418-2.923-7.046-5.925 2.086-.075 9.857 4.112 6.195-2.396c2.263-.875 4.17-.951 5.667-.228.377.183.509.342.505.404 0 .004-.043.432-1.787 1.106z"/></g><defs><clipPath id="clip0"><path fill="#fff" transform="translate(.216 .76)" d="M0 0h34.93v28.972H0z"/></clipPath></defs></svg>