<svg width="36" height="27" fill="none" xmlns="http://www.w3.org/2000/svg"><path d="M1.633 24.877h33.075v1.193H1.633v-1.193zm1.129-6.908c.547-2.261 2.915-3.545 4.805-4.224l5.633-2.023 2.751-8.587 3.965-3.4.748 9.312 5.131-1.807 1.986-4.349 3.552-1.275.84 4.133c.521.013 1.144.134 1.403.63.338.648-.077 1.522-1.235 2.605a13.69 13.69 0 01-.806.692c-1.384 1.105-3.128 2.124-4.443 2.596L6.956 19.505c-1.74.625-2.936.693-3.66.208-.375-.252-.772-.759-.534-1.744zm3.622.442l20.137-7.234c1.12-.402 2.648-1.29 3.894-2.264 1.273-.994 1.745-1.68 1.826-1.965a3.31 3.31 0 00-.581.02l-.683.07-.757-3.723-1.31.47-1.987 4.353-7.56 2.663-.666-8.305-1.452 1.246-2.834 8.844-6.273 2.253c-2.29.823-3.625 1.955-3.966 3.364-.086.356-.03.543.029.582.004.003.418.26 2.183-.374z" fill="#1F4AA8"/></svg>