<svg xmlns="http://www.w3.org/2000/svg" viewBox="0 0 80 80"><path d="M74 42.9h-2.3c-1 0-2.1.9-2.1 2.1v21.8c0 3.4-2.7 6.1-6.1 6.1H13.2c-3.4 0-6.1-2.7-6.1-6.1v-50c0-3.4 2.7-6.1 6.1-6.1h26.3c1 0 2.1-.9 2.1-2.1V6.3c0-1.2-.9-2.1-2.1-2.1H11.1C5.3 4.2.5 8.9.5 14.7v54.4c0 5.8 4.8 10.5 10.6 10.5h54.5c2.9 0 5.6-1.1 7.6-3.2 2-2 3-4.6 2.9-7.3V45c0-1.2-.9-2.1-2.1-2.1z"/><path d="M78.8 13.5c0-1.5-.6-3-1.6-4.1l-6.1-6.1c-2.1-2.1-5.5-2.2-7.7-.2l-8.5 8.6L22 44.9l-4.3 13-.1.4c-.3 1.5.2 3.1 1.4 4.2.8.7 1.8 1.1 2.8 1.1.4 0 .9-.1 1.3-.2L36 59.1l37-37.6 4.2-4.2c1-1 1.6-2.3 1.6-3.8zM67.2 7.9l5.5 5.5-3.8 3.8-5.5-5.5 3.8-3.8zM32.7 53.7l-8.2 2.8 2.8-8.3L59.1 16l5.5 5.5-31.9 32.2z"/></svg>